<svg width="14" height="14" viewBox="0 0 14 14" fill="none" xmlns="http://www.w3.org/2000/svg">
<path d="M13.75 6.5049V12.2498C13.75 13.2473 13.2475 13.7498 12.25 13.7498H11.35C11.2255 13.7498 11.125 13.6493 11.125 13.5248V5.28981C11.125 5.13981 11.26 5.03478 11.4025 5.07228L12.8725 5.40975C13.39 5.52225 13.75 5.9799 13.75 6.5049ZM10 3.10738V13.5248C10 13.6493 9.89946 13.7498 9.77496 13.7498C9.77496 13.7498 6.89804 13.7498 6.85004 13.7498C6.72254 13.7498 6.625 13.6373 6.625 13.5323C6.625 13.4348 6.625 10.7498 6.625 10.7498C6.625 9.92484 5.95 9.24984 5.125 9.24984C4.3 9.24984 3.625 9.92484 3.625 10.7498C3.625 10.7498 3.625 13.4048 3.625 13.5248C3.625 13.6448 3.51249 13.7498 3.42249 13.7498C3.32499 13.7498 1.75 13.7498 1.75 13.7498C0.7525 13.7498 0.25 13.2473 0.25 12.2498V1.37484C0.25 0.654836 0.924974 0.114866 1.62997 0.279866L9.12997 2.01241C9.63997 2.12491 10 2.58238 10 3.10738ZM4.5625 6.99984C4.5625 6.69234 4.3075 6.43734 4 6.43734H3.25C2.9425 6.43734 2.6875 6.69234 2.6875 6.99984C2.6875 7.30734 2.9425 7.56234 3.25 7.56234H4C4.3075 7.56234 4.5625 7.30734 4.5625 6.99984ZM4.5625 4.74984C4.5625 4.44234 4.3075 4.18734 4 4.18734H3.25C2.9425 4.18734 2.6875 4.44234 2.6875 4.74984C2.6875 5.05734 2.9425 5.31234 3.25 5.31234H4C4.3075 5.31234 4.5625 5.05734 4.5625 4.74984ZM7.5625 6.99984C7.5625 6.69234 7.3075 6.43734 7 6.43734H6.25C5.9425 6.43734 5.6875 6.69234 5.6875 6.99984C5.6875 7.30734 5.9425 7.56234 6.25 7.56234H7C7.3075 7.56234 7.5625 7.30734 7.5625 6.99984ZM7.5625 4.74984C7.5625 4.44234 7.3075 4.18734 7 4.18734H6.25C5.9425 4.18734 5.6875 4.44234 5.6875 4.74984C5.6875 5.05734 5.9425 5.31234 6.25 5.31234H7C7.3075 5.31234 7.5625 5.05734 7.5625 4.74984Z" fill="#161616"/>
</svg>
