<svg width="41" height="40" viewBox="0 0 41 40" fill="none" xmlns="http://www.w3.org/2000/svg">
<rect x="0.400208" width="40" height="40" rx="20" fill="#161616"/>
<path d="M20.7843 27.1667H13.5204C13.0579 27.1667 12.6833 26.7918 12.6833 26.3295V12.8371C12.6833 12.3747 13.058 12 13.5204 12H27.0129C27.4752 12 27.8499 12.3747 27.8499 12.8371V26.3295C27.8499 26.7918 27.4751 27.1667 27.0129 27.1667H23.1481V21.2933H25.1195L25.4147 19.0043H23.1481V17.543C23.1481 16.8803 23.3321 16.4287 24.2824 16.4287L25.4945 16.4281V14.3809C25.2848 14.353 24.5653 14.2907 23.7283 14.2907C21.9807 14.2907 20.7843 15.3574 20.7843 17.3163V19.0043H18.8078V21.2933H20.7843V27.1667Z" fill="#FDFDFD"/>
</svg>
