<svg width="14" height="14" viewBox="0 0 14 14" fill="none" xmlns="http://www.w3.org/2000/svg">
<path d="M11.2189 8.62995L13.2012 9.81194C13.6107 10.0564 13.8221 10.532 13.7283 11C13.3451 12.9192 11.4176 14.1492 9.5299 13.6309C5.07565 12.4085 1.59631 8.9397 0.369315 4.4757C-0.149685 2.5872 1.07889 0.658184 2.99889 0.274184L3.01153 0.271941C3.48028 0.178191 3.95815 0.390441 4.2019 0.802191L5.37414 2.78145C5.79114 3.4857 5.58402 4.39243 4.90227 4.84543L3.65661 5.67419C4.53561 7.77944 6.21556 9.4662 8.31481 10.3437L9.15105 9.09495C9.6078 8.4147 10.5154 8.2107 11.2189 8.62995Z" fill="#161616"/>
</svg>
