<svg width="20" height="19" viewBox="0 0 20 19" fill="none" xmlns="http://www.w3.org/2000/svg">
<path d="M14.8539 18.751C14.5649 18.751 14.2749 18.682 14.0059 18.541L10.118 16.506C10.044 16.467 9.95589 16.467 9.88189 16.506L5.99688 18.539C5.37788 18.863 4.64198 18.809 4.07598 18.397C3.51298 17.986 3.23496 17.305 3.35296 16.618L4.09392 12.317C4.10792 12.236 4.08088 12.154 4.02288 12.097L0.781913 8.95099C0.300913 8.48399 0.129967 7.79696 0.336967 7.15796C0.543967 6.51896 1.08588 6.06197 1.75188 5.96497L6.23394 5.31696C6.31594 5.30496 6.38593 5.25397 6.42193 5.18097L8.36492 1.263C8.67492 0.638 9.30095 0.25 9.99895 0.25C10.697 0.25 11.323 0.638 11.633 1.263L13.5749 5.17999C13.6119 5.25399 13.682 5.30496 13.764 5.31696L18.2459 5.96497C18.9119 6.06097 19.4539 6.51796 19.6609 7.15796C19.8679 7.79696 19.6969 8.48399 19.2159 8.95099L15.9759 12.0959C15.9159 12.1539 15.89 12.236 15.904 12.317L16.645 16.62C16.763 17.306 16.4869 17.987 15.9229 18.397C15.6049 18.632 15.2299 18.751 14.8539 18.751ZM9.99993 14.977C10.2789 14.977 10.5589 15.043 10.8129 15.176L14.701 17.211C14.856 17.293 14.9819 17.23 15.0419 17.186C15.1019 17.143 15.1969 17.044 15.1679 16.876L14.4269 12.572C14.3289 12.002 14.5189 11.422 14.9339 11.02L18.1729 7.87598C18.2699 7.78198 18.2539 7.67595 18.2359 7.62195C18.2179 7.56695 18.1679 7.47099 18.0329 7.45099L13.551 6.80298C12.98 6.72098 12.487 6.36298 12.232 5.84698L10.2909 1.93097C10.2139 1.77497 10.0759 1.75195 10.0009 1.75195C9.92591 1.75195 9.78799 1.77497 9.71099 1.93097L7.76897 5.84796C7.51497 6.36296 7.02198 6.72098 6.45098 6.80298L1.96892 7.45099C1.83392 7.47099 1.78292 7.56595 1.76592 7.62195C1.74792 7.67695 1.73291 7.78198 1.82891 7.87598L5.0689 11.021C5.4829 11.422 5.67288 12.002 5.57488 12.572L4.83391 16.873C4.80491 17.042 4.90099 17.141 4.96099 17.185C5.02299 17.229 5.14489 17.291 5.30389 17.21L9.1889 15.177C9.4409 15.044 9.72093 14.977 9.99993 14.977Z" fill="#9A9A9A"/>
</svg>
