<svg width="18" height="18" viewBox="0 0 18 18" fill="none" xmlns="http://www.w3.org/2000/svg">
<path d="M9.9375 10.5C9.9375 11.8425 11.0325 12.9375 12.375 12.9375H15.75V13.5C15.75 15 15 15.75 13.5 15.75H4.5C3 15.75 2.25 15 2.25 13.5V3.75C2.25 4.575 2.925 5.25 3.75 5.25H13.5C15 5.25 15.75 6 15.75 7.5V8.0625H12.375C11.0325 8.0625 9.9375 9.1575 9.9375 10.5ZM12.375 9.1875C11.655 9.1875 11.0625 9.78 11.0625 10.5C11.0625 11.22 11.655 11.8125 12.375 11.8125H15.75V9.1875H12.375ZM12.765 11.25C12.3525 11.25 12.0075 10.9125 12.0075 10.5C12.0075 10.0875 12.345 9.75 12.7575 9.75H12.765C13.1775 9.75 13.515 10.0875 13.515 10.5C13.515 10.9125 13.1775 11.25 12.765 11.25ZM11.25 2.25H4.3125C3.795 2.25 3.375 2.67 3.375 3.1875C3.375 3.705 3.795 4.125 4.3125 4.125H13.4775C13.365 2.8725 12.6225 2.25 11.25 2.25Z" fill="#9A9A9A"/>
</svg>
